# xmcd
#
# Track frame offsets:
#   150
#   14057
#   25050
#   37620
#   48772
#   63037
#   76255
#   93465
#   105047
#   115727
#   127877
#   138672
#   147312
#   159647
#   172442
#   189212
#
# Disc length: 2690 seconds
#
# Revision: 0
# Processed by: cddbd v1.5.1PL0 Copyright (c) Steve Scherf et al.
# Submitted via: uFREEDB ActiveX Control 1.5
#
DISCID=c40a8010
DTITLE=Grupo Pantanal - A Moça do Chamamé
DYEAR=1900
DGENRE=Folk
TTITLE0=Coisas do Poeira Amélia
TTITLE1=Mi Ponchillo Colorado
TTITLE2=A Moça do Chamamé
TTITLE3=Paysano Y Campero
TTITLE4=Voltarei em Teus Bracos
TTITLE5=Morena Faceira
TTITLE6=Amor Supremo
TTITLE7=El Guazuncho
TTITLE8=La Caú
TTITLE9=La Serruchada
TTITLE10=Fierro Punta
TTITLE11=Hermano Chello
TTITLE12=Campo Vermelho
TTITLE13=Bailando a Chamarra
TTITLE14=Desejo Chamamezeiro
TTITLE15=Che Renda Alazan
EXTD=
EXTT0=
EXTT1=
EXTT2=
EXTT3=
EXTT4=
EXTT5=
EXTT6=
EXTT7=
EXTT8=
EXTT9=
EXTT10=
EXTT11=
EXTT12=
EXTT13=
EXTT14=
EXTT15=
PLAYORDER=
